<!DOCTYPE svg>
<svg viewBox="0 0 1024 1024" version="1.1" xmlns="http://www.w3.org/2000/svg">
  <path
    d="M573 421c-23 0-41 17-41 40s17 40 41 40c21 0 39-17 39-40s-17-40-39-40z m-280 0c-23 0-41 17-41 40s17 40 41 40c21 0 39-17 39-40s-17-40-39-40z" />
  <path
    d="M894 345c-48-66-115-110-189-130v0c-17-19-36-36-58-52-163-119-393-82-513 81-96 133-92 311 6 439l0 132c0 3 0 6 1 9 5 16 23 26 40 20L309 806c33 11 68 18 102 20l-0 0c89 64 205 84 313 49l127 41c3 1 6 1 9 1 17 0 32-14 32-32V753c88-119 90-284 1-408zM323 735l-12-5-99 31-1-104-8-9c-84-103-90-251-11-361 96-132 281-161 413-66 132 96 161 280 66 412-80 109-223 150-348 102z m505-17l-8 10 1 104-98-33-12 5c-56 20-115 22-171 7l-0-0C613 788 680 742 729 676c76-105 88-237 44-350l0 0c23 16 44 37 62 62 72 99 68 235-8 330z" />
  <path d="M433 421c-23 0-41 17-41 40s17 40 41 40c21 0 39-17 39-40s-17-40-39-40z" />
</svg>