<!DOCTYPE svg>
<svg viewBox="0 0 1024 1024" version="1.1" xmlns="http://www.w3.org/2000/svg">
  <path
    d="M896 960h-128c-35 0-64-28-64-64v-32H544c-88 0-160-72-160-160V496h-64v16c0 35-28 64-64 64H128c-35 0-64-28-64-64V128c0-35 28-64 64-64h128c35 0 64 28 64 64v48h160c88 0 160 72 160 160v208h64v-32c0-35 28-64 64-64h128c35 0 64 28 64 64v384c0 35-28 64-64 64zM256 144c0-9-6-16-16-16H144c-9 0-16 6-16 16v352c0 9 6 16 16 16h96c9 0 16-6 16-16V144z m448 464h-96c-17 0-32-14-32-32V336c0-52-43-96-96-96H320v192h96c9 0 17 3 22 9 6 6 9 14 9 22v240c0 52 43 96 96 96h160V608z m192-80c0-9-6-16-16-16h-96c-9 0-16 6-16 16v352c0 9 6 16 16 16h96c9 0 16-6 16-16V528z" />
</svg>